<svg width="48" height="45" viewBox="0 0 48 45" fill="none" xmlns="http://www.w3.org/2000/svg">
<path d="M24.4865 19.9247C26.7853 13.7591 22.0248 10.3841 18.8692 8.16595C18.2659 7.71277 17.6625 7.28941 17.1738 6.90183C16.3004 6.17346 15.6569 5.21252 15.32 4.13327C14.9831 3.05402 14.9669 1.90186 15.2732 0.813754C15.3047 0.699909 15.3039 0.579702 15.271 0.466265C15.238 0.352829 15.1742 0.250524 15.0864 0.170525C14.9986 0.0905255 14.8902 0.0359104 14.7731 0.0126413C14.6561 -0.0106278 14.5348 -0.00165465 14.4225 0.0385814C13.3598 0.454105 12.3718 1.03597 11.4962 1.76185C10.655 2.40281 9.97347 3.22564 9.50388 4.16725C9.03429 5.10886 8.78911 6.14424 8.78715 7.19401C8.19216 7.65757 7.66612 8.20154 7.22446 8.80994C6.41311 9.90451 6.00633 11.2411 6.07205 12.5963C5.1056 13.4736 4.38581 14.5836 3.98292 15.8178C3.58002 17.052 3.50778 18.3684 3.77327 19.6385C3.38879 19.8681 3.09119 20.216 2.92616 20.6289C2.76114 21.0418 2.7378 21.4969 2.85976 21.9241C2.98172 22.3514 3.24223 22.7273 3.60127 22.9941C3.96031 23.2609 4.39804 23.4039 4.84724 23.401H4.88948V26.9072C4.88948 27.263 5.0325 27.6043 5.28709 27.8559C5.54168 28.1075 5.88699 28.2488 6.24703 28.2488H7.3029L9.02247 42.9771C9.05822 43.305 9.21543 43.6082 9.46383 43.8283C9.71224 44.0485 10.0343 44.1701 10.3679 44.1697H17.5238C17.8577 44.1689 18.1798 44.0471 18.4289 43.8273C18.678 43.6075 18.8368 43.3049 18.8753 42.9771L20.5948 28.2488H21.6507C22.0108 28.2488 22.356 28.1075 22.6106 27.8559C22.8652 27.6043 23.0083 27.263 23.0083 26.9072V23.401H23.0505C23.5962 23.401 24.1195 23.1868 24.5053 22.8055C24.8912 22.4242 25.1079 21.907 25.1079 21.3677C25.1107 21.0986 25.0587 20.8316 24.955 20.5827C24.8514 20.3338 24.6982 20.108 24.5046 19.9187L24.4865 19.9247ZM8.99833 8.73838C9.86717 11.9643 13.2218 13.2344 16.2808 14.3673C16.3631 14.4173 16.4555 14.4489 16.5514 14.4596C16.6474 14.4704 16.7445 14.4601 16.836 14.4296C16.9275 14.399 17.0111 14.349 17.0808 14.2829C17.1505 14.2168 17.2046 14.1364 17.2393 14.0473C17.274 13.9583 17.2884 13.8627 17.2816 13.7675C17.2747 13.6723 17.2467 13.5798 17.1995 13.4965C17.1524 13.4132 17.0872 13.3412 17.0088 13.2856C16.9303 13.23 16.8404 13.1921 16.7454 13.1747C13.4511 11.9404 10.3438 10.7896 10.1085 7.49215C10.0534 6.58572 10.2255 5.67986 10.6097 4.85498C10.9939 4.0301 11.5782 3.31172 12.3108 2.76361C12.7697 2.38622 13.2625 2.05091 13.7829 1.76185C13.7494 2.17461 13.7494 2.58936 13.7829 3.00212C13.8528 3.94703 14.1142 4.86841 14.5516 5.71147C14.989 6.55452 15.5935 7.30203 16.3291 7.90955C16.8299 8.33291 17.4513 8.7682 18.1392 9.2333C19.726 10.3603 21.53 11.6184 22.6764 13.3238C23.288 14.1984 23.6686 15.2103 23.7835 16.2674C23.8983 17.3244 23.7438 18.3931 23.3341 19.3761H23.0807H20.6672C15.1707 19.3761 8.85353 17.8735 7.60458 13.6637C7.35682 12.7976 7.35884 11.8804 7.61044 11.0154C7.86203 10.1504 8.35319 9.37205 9.02849 8.7682L8.99833 8.73838ZM13.9458 29.0657L15.9611 31.0573L13.9458 33.0489L11.9306 31.0454L13.9458 29.0657ZM18.5676 34.2952L16.9023 35.9409L14.8871 33.9493L16.9023 31.9637L18.652 33.687L18.5676 34.2952ZM13.9458 38.8627L11.9306 36.8711L13.9458 34.8795L15.9611 36.8711L13.9458 38.8627ZM13.0227 33.9613L11.0075 35.9528L9.33017 34.2952L9.25777 33.6989L11.0075 31.9756L13.0227 33.9613ZM10.0783 36.8711L9.67409 37.2706L9.57151 36.3643L10.0783 36.8711ZM9.86717 38.9104L11.0075 37.7834L13.2218 39.9897C13.2332 40.0342 13.2473 40.0781 13.2641 40.1209H10.0059L9.86717 38.9104ZM16.8902 37.7834L18.0306 38.9104L17.8918 40.103H14.5432L16.8902 37.7834ZM18.2176 37.2706L17.8134 36.8711L18.3262 36.3643L18.2176 37.2706ZM18.821 32.0591L17.8134 31.0454L19.0925 29.7813L18.821 32.0591ZM16.8842 30.1391L14.9716 28.2548H18.7968L16.8842 30.1391ZM11.0015 30.1391L9.08883 28.2548H12.9141L11.0015 30.1391ZM17.5177 42.8757H10.3679C10.3572 42.8745 10.3472 42.8697 10.3395 42.8621C10.3319 42.8545 10.327 42.8446 10.3257 42.834L10.1568 41.4029H17.7349L17.572 42.834C17.5705 42.8456 17.5648 42.8562 17.5559 42.8639C17.547 42.8716 17.5356 42.8758 17.5238 42.8757H17.5177ZM23.0505 22.1011H20.9508C20.8596 22.0925 20.7675 22.1028 20.6805 22.1313C20.5935 22.1599 20.5135 22.2061 20.4457 22.267C20.3778 22.328 20.3236 22.4022 20.2865 22.4851C20.2494 22.5679 20.2302 22.6575 20.2302 22.7481C20.2302 22.8387 20.2494 22.9283 20.2865 23.0111C20.3236 23.094 20.3778 23.1683 20.4457 23.2292C20.5135 23.2901 20.5935 23.3363 20.6805 23.3649C20.7675 23.3935 20.8596 23.4037 20.9508 23.3951H21.699V26.9012C21.6975 26.9128 21.6918 26.9235 21.6829 26.9312C21.674 26.9389 21.6625 26.9431 21.6507 26.943H6.22289C6.21107 26.9431 6.19962 26.9389 6.19072 26.9312C6.18183 26.9235 6.17611 26.9128 6.17463 26.9012V23.3951H18.1271C18.2899 23.3796 18.441 23.3048 18.551 23.1852C18.6609 23.0655 18.7219 22.9097 18.7219 22.7481C18.7219 22.5865 18.6609 22.4307 18.551 22.3111C18.441 22.1914 18.2899 22.1166 18.1271 22.1011H4.85328C4.74979 22.1104 4.64549 22.0982 4.54704 22.0653C4.44858 22.0325 4.35811 21.9798 4.28141 21.9105C4.20471 21.8412 4.14346 21.7569 4.10155 21.663C4.05964 21.569 4.03799 21.4674 4.03799 21.3647C4.03799 21.262 4.05964 21.1605 4.10155 21.0665C4.14346 20.9725 4.20471 20.8882 4.28141 20.8189C4.35811 20.7497 4.44858 20.6969 4.54704 20.6641C4.64549 20.6313 4.74979 20.6191 4.85328 20.6283H6.22289C6.38567 20.6129 6.53678 20.538 6.64674 20.4184C6.7567 20.2988 6.81763 20.143 6.81763 19.9813C6.81763 19.8197 6.7567 19.6639 6.64674 19.5443C6.53678 19.4247 6.38567 19.3498 6.22289 19.3344H5.01618C4.84335 18.4271 4.87143 17.4936 5.09849 16.5981C5.32554 15.7025 5.74619 14.8662 6.33149 14.1467C6.75384 15.4466 7.83988 17.2235 10.555 18.6367C13.1072 19.9545 16.486 20.6283 20.5948 20.6283H23.0083C23.1118 20.6191 23.216 20.6313 23.3145 20.6641C23.413 20.6969 23.5034 20.7497 23.5801 20.8189C23.6568 20.8882 23.7181 20.9725 23.76 21.0665C23.8019 21.1605 23.8235 21.262 23.8235 21.3647C23.8235 21.4674 23.8019 21.569 23.76 21.663C23.7181 21.7569 23.6568 21.8412 23.5801 21.9105C23.5034 21.9798 23.413 22.0325 23.3145 22.0653C23.216 22.0982 23.1118 22.1104 23.0083 22.1011H23.0505Z" fill="#F8D24E"/>
<path d="M27.8677 39.2557L27.5947 39.6746L27.6002 39.6781L27.8677 39.2557ZM33.0669 39.5061L33.5667 39.495L33.5539 38.9163L32.9832 39.0132L33.0669 39.5061ZM33.1273 42.2266L33.2546 42.7101L33.636 42.6098L33.6272 42.2155L33.1273 42.2266ZM26.3045 42.3561L26.4167 41.8689L26.4137 41.8682L26.3045 42.3561ZM22.9363 40.8534L23.2598 40.4721L23.259 40.4715L22.9363 40.8534ZM21.7186 38.0897L22.2186 38.0922V38.0897H21.7186ZM22.1418 36.1552L21.6931 35.9345L21.6928 35.9352L22.1418 36.1552ZM24.8536 33.8406L25.031 34.3081L25.0328 34.3074L24.8536 33.8406ZM33.5419 33.6161L34.0404 33.6549L34.0733 33.2327L33.6622 33.1307L33.5419 33.6161ZM33.326 36.3884L33.2329 36.8796L33.7811 36.9835L33.8245 36.4272L33.326 36.3884ZM30.9682 35.6379C29.6573 35.6379 28.6062 35.7797 27.8651 36.1055C27.4889 36.271 27.1689 36.4941 26.9424 36.7929C26.7111 37.0981 26.5991 37.4539 26.5991 37.8393H27.5991C27.5991 37.6575 27.6483 37.5171 27.7394 37.397C27.8353 37.2704 27.999 37.1391 28.2676 37.0209C28.8163 36.7797 29.6997 36.6379 30.9682 36.6379V35.6379ZM26.5991 37.8393C26.5991 38.6191 26.9411 39.2486 27.5947 39.6746L28.1407 38.8368C27.7695 38.5949 27.5991 38.2801 27.5991 37.8393H26.5991ZM27.6002 39.6781C28.234 40.0795 29.1018 40.2479 30.1391 40.2479V39.2479C29.1843 39.2479 28.5379 39.0882 28.1353 38.8332L27.6002 39.6781ZM30.1391 40.2479C31.1679 40.2479 32.1718 40.1651 33.1505 39.9991L32.9832 39.0132C32.0619 39.1695 31.114 39.2479 30.1391 39.2479V40.2479ZM32.567 39.5172L32.6275 42.2377L33.6272 42.2155L33.5667 39.495L32.567 39.5172ZM33.0001 41.7431C31.953 42.0186 30.8045 42.1584 29.5518 42.1584V43.1584C30.8786 43.1584 32.1138 43.0103 33.2546 42.7101L33.0001 41.7431ZM29.5518 42.1584C28.285 42.1584 27.243 42.0591 26.4167 41.8689L26.1923 42.8434C27.1164 43.0562 28.2392 43.1584 29.5518 43.1584V42.1584ZM26.4137 41.8682C25.5561 41.6764 24.9136 41.4679 24.4685 41.2505L24.0296 42.1491C24.5748 42.4153 25.3027 42.6444 26.1954 42.8441L26.4137 41.8682ZM24.4685 41.2505C24.0068 41.025 23.6049 40.765 23.2598 40.4721L22.6128 41.2347C23.0277 41.5867 23.501 41.8909 24.0296 42.1491L24.4685 41.2505ZM23.259 40.4715C22.564 39.8841 22.2135 39.1085 22.2186 38.0922L21.2186 38.0872C21.2121 39.374 21.6735 40.4409 22.6136 41.2353L23.259 40.4715ZM22.2186 38.0897C22.2186 37.4433 22.3458 36.875 22.5908 36.3752L21.6928 35.9352C21.3734 36.5869 21.2186 37.3083 21.2186 38.0897H22.2186ZM22.5904 36.3758C23.0431 35.4554 23.8376 34.7609 25.031 34.3081L24.6762 33.3731C23.2902 33.8991 22.2768 34.7476 21.6931 35.9345L22.5904 36.3758ZM25.0328 34.3074C26.2586 33.8368 27.6191 33.5979 29.12 33.5979V32.5979C27.5118 32.5979 26.028 32.8541 24.6744 33.3738L25.0328 34.3074ZM29.12 33.5979C30.6374 33.5979 32.0707 33.7664 33.4216 34.1014L33.6622 33.1307C32.2264 32.7748 30.7118 32.5979 29.12 32.5979V33.5979ZM33.0434 33.5772L32.8275 36.3495L33.8245 36.4272L34.0404 33.6549L33.0434 33.5772ZM33.4191 35.8971C32.516 35.7259 31.698 35.6379 30.9682 35.6379V36.6379C31.6203 36.6379 32.3741 36.7168 33.2329 36.8796L33.4191 35.8971ZM42.1196 36.9324L42.1168 37.4324L42.625 37.4353L42.6196 36.9271L42.1196 36.9324ZM41.7396 35.7838L41.3993 36.1502L41.4037 36.1542L41.7396 35.7838ZM39.5373 35.8702L39.8836 36.2309L39.8873 36.2273L39.5373 35.8702ZM39.0018 36.9152L38.5085 36.8341L38.4135 37.4119L38.9991 37.4152L39.0018 36.9152ZM45.5051 41.6307L45.8071 42.0291L45.9869 41.8929L46.0037 41.668L45.5051 41.6307ZM43.5964 42.3389L43.4889 41.8505L43.486 41.8512L43.5964 42.3389ZM36.9636 42.097L36.7931 42.5671L36.7972 42.5685L36.9636 42.097ZM35.4523 41.2939L35.1419 41.6859L35.1479 41.6906L35.4523 41.2939ZM34.4418 40.0243L33.9936 40.2459L33.9946 40.2479L34.4418 40.0243ZM35.4782 34.6611L35.8107 35.0345L35.8109 35.0343L35.4782 34.6611ZM43.5619 33.7024L43.7619 33.2441L43.7572 33.2421L43.5619 33.7024ZM45.5915 35.5679L45.1418 35.7865L45.1431 35.7893L45.5915 35.5679ZM45.9369 37.1138L46.4356 37.1501L46.4369 37.132V37.1138H45.9369ZM45.8333 38.5388L45.8308 39.0388L46.2981 39.0411L46.332 38.5751L45.8333 38.5388ZM38.8291 38.5043L38.8316 38.0043L38.1793 38.0011L38.3456 38.6318L38.8291 38.5043ZM39.8309 39.7393L39.5849 40.1746L39.5869 40.1757L39.8309 39.7393ZM45.2028 39.437V38.937H45.1029L45.0107 38.9754L45.2028 39.437ZM45.6692 39.437L46.1678 39.4743L46.208 38.937H45.6692V39.437ZM42.6196 36.9271C42.6132 36.3302 42.475 35.7758 42.0755 35.4134L41.4037 36.1542C41.4993 36.2409 41.6145 36.4522 41.6196 36.9378L42.6196 36.9271ZM42.0798 35.4174C41.7123 35.0761 41.2129 34.947 40.6687 34.947V35.947C41.0687 35.947 41.2832 36.0424 41.3994 36.1502L42.0798 35.4174ZM40.6687 34.947C40.0936 34.947 39.5834 35.1249 39.1873 35.5131L39.8873 36.2273C40.067 36.0512 40.311 35.947 40.6687 35.947V34.947ZM39.191 35.5095C38.8198 35.8659 38.5938 36.3148 38.5085 36.8341L39.4952 36.9963C39.548 36.675 39.6791 36.4272 39.8836 36.2309L39.191 35.5095ZM38.9991 37.4152L42.1168 37.4324L42.1224 36.4325L39.0046 36.4152L38.9991 37.4152ZM45.203 41.2322C44.9383 41.4329 44.3944 41.6512 43.4889 41.8506L43.7039 42.8272C44.6294 42.6235 45.3579 42.3696 45.8071 42.0291L45.203 41.2322ZM43.486 41.8512C42.6037 42.051 41.7512 42.1498 40.9278 42.1498V43.1498C41.8316 43.1498 42.7583 43.0413 43.7068 42.8265L43.486 41.8512ZM40.9278 42.1498C40.0838 42.1498 39.3791 42.11 38.8095 42.0333L38.676 43.0244C39.304 43.1089 40.056 43.1498 40.9278 43.1498V42.1498ZM38.8095 42.0333C38.2457 41.9574 37.686 41.8218 37.13 41.6256L36.7972 42.5685C37.4158 42.7869 38.0422 42.9391 38.676 43.0244L38.8095 42.0333ZM37.1341 41.627C36.5866 41.4284 36.1298 41.1834 35.7566 40.8971L35.1479 41.6906C35.6154 42.0491 36.1661 42.3396 36.7931 42.5671L37.1341 41.627ZM35.7626 40.9018C35.4108 40.6233 35.1185 40.2597 34.889 39.8007L33.9946 40.2479C34.2832 40.8252 34.6646 41.308 35.1419 41.6859L35.7626 40.9018ZM34.89 39.8027C34.6722 39.3622 34.5532 38.8169 34.5532 38.1502H33.5532C33.5532 38.9344 33.6932 39.6385 33.9936 40.2459L34.89 39.8027ZM34.5532 38.1502C34.5532 37.4806 34.6741 36.8785 34.9091 36.3369L33.9918 35.9388C33.6971 36.618 33.5532 37.3573 33.5532 38.1502H34.5532ZM34.9091 36.3369C35.1503 35.7812 35.4536 35.3525 35.8107 35.0345L35.1457 34.2876C34.6622 34.7182 34.2803 35.2739 33.9918 35.9388L34.9091 36.3369ZM35.8109 35.0343C36.8563 34.1022 38.4118 33.5979 40.5564 33.5979V32.5979C38.2677 32.5979 36.4377 33.1357 35.1454 34.2879L35.8109 35.0343ZM40.5564 33.5979C41.5444 33.5979 42.4797 33.7864 43.3666 34.1627L43.7572 33.2421C42.7441 32.8123 41.6757 32.5979 40.5564 32.5979V33.5979ZM43.3619 34.1607C44.2173 34.5339 44.7973 35.0779 45.1418 35.7865L46.0411 35.3493C45.5795 34.3997 44.8065 33.7 43.7619 33.2441L43.3619 34.1607ZM45.1431 35.7893C45.3366 36.1811 45.4369 36.6197 45.4369 37.1138H46.4369C46.4369 36.4794 46.3069 35.8874 46.0398 35.3465L45.1431 35.7893ZM45.4382 37.0775L45.3346 38.5026L46.332 38.5751L46.4356 37.1501L45.4382 37.0775ZM45.8357 38.0388L38.8316 38.0043L38.8266 39.0043L45.8308 39.0388L45.8357 38.0388ZM38.3456 38.6318C38.5226 39.3027 38.9536 39.8178 39.5849 40.1746L40.077 39.304C39.6489 39.062 39.412 38.7537 39.3126 38.3768L38.3456 38.6318ZM39.5869 40.1757C40.2252 40.5326 41.0489 40.6884 42.016 40.6884V39.6884C41.1406 39.6884 40.5076 39.5448 40.075 39.3029L39.5869 40.1757ZM42.016 40.6884C43.0245 40.6884 44.1541 40.4152 45.395 39.8986L45.0107 38.9754C43.8448 39.4607 42.8499 39.6884 42.016 39.6884V40.6884ZM45.2028 39.937H45.6692V38.937H45.2028V39.937ZM45.1706 39.3997L45.0065 41.5934L46.0037 41.668L46.1678 39.4743L45.1706 39.3997Z" fill="#F8D24E"/>
</svg>
